<?xml version="1.0" encoding="utf-8"?>
<!-- Generator: Adobe Illustrator 24.0.1, SVG Export Plug-In . SVG Version: 6.00 Build 0)  -->
<svg version="1.1" id="Слой_1" xmlns="http://www.w3.org/2000/svg" xmlns:xlink="http://www.w3.org/1999/xlink" x="0px" y="0px"
	 viewBox="0 0 500 500" style="enable-background:new 0 0 500 500;" xml:space="preserve">
<style type="text/css">
	.st0{fill:none;}
</style>
<title>mm_logo</title>
<path d="M154.2,409.2c-1.8,2.8-3,5.9-3.7,9.2c-1.1,5.4-1.5,11-1.2,16.5c0.1,1.3,0.4,2.6,0.8,3.8c1,2,1.8,3.8,2.8,5.7
	c1.5,2.8,2.7,5.8,3.5,8.8c0.9,4.1,0.7,8.3-0.5,12.3c-1.4,5.5-7,8.9-12.5,7.5c-0.2-0.1-0.4-0.1-0.7-0.2c-2-0.5-3.9-1.3-5.7-2.3
	c-3.4-2-5.3-5.8-4.8-9.7c0.3-4.1,1.2-8.2,2.8-12c1.5-3.7,2.8-7.5,4.3-11.2c1.5-4,2.3-8.2,2.3-12.5c-0.1-3.9-0.8-7.7-2-11.3
	c-1-2.8-2.6-5.4-4.7-7.7c-0.9-1.1-2.2-1.9-3.7-2c-5.8-1.1-11.5-2.6-17.2-4.3c-3.6-1.1-7.2-2.5-10.5-4.3c-1.1-0.6-2.2-1.2-3.2-2
	c-2.9-1.8-4.8-4.8-5.3-8.2c-0.8-4.5-1.8-8.8-2.7-13.3c-1.5-7.8-3-15.5-4.5-23.3c-2.7-13.3-5.2-26.7-7.8-40
	c-1.3-6.8-2.5-13.7-4.2-20.5c-0.7-2.7,0.2-5.6,2.3-7.3c1.1-1,2.2-1.9,3.5-2.7c3.2-2,6.3-3.7,9.3-5.7c3.5-2.1,6.8-4.5,10-7
	c7-5.3,13.8-10.7,20.5-16.2c8.9-7.3,17.5-15.1,25.7-23.3c8.2-8.3,16-16.8,23.7-25.3c13.3-15,26.2-30.5,38.5-46.5
	c11.2-14.2,21.2-28.7,31-43.7c1-1.7,1.8-3.5,2.8-5.2c1.5-2.7,2.8-5.3,4.2-8c0.2-0.5,0.5-1,0.8-1.3c1-1.3,2-1.2,2.7,0.3
	c3.2,7.2,6.2,14.2,9.2,21.3c3.5,8.5,7.7,16.7,12.5,24.5c7.8,12.8,15.8,25.7,24.8,37.7c1.5,2,3,4.2,4.5,6.3
	c6.2,9.2,13.1,17.9,20.5,26.2c7.3,8.3,14.7,16.5,22.3,24.3c9.1,9.5,18.8,18.4,29,26.7c4.8,4,9.7,7.5,14.5,11.3
	c0.9,0.6,1.8,1.1,2.8,1.5c2.2,1,4.5,1.8,6.7,2.8c1.7,0.9,3.2,2,4.7,3.2c1.3,1,2.2,2.3,2.8,3.8c0.6,1.3,0.7,2.8,0.3,4.2l-12,60.5
	c-2.3,12.5-4.8,24.8-7.2,37.2c-0.4,3.4-2.5,6.5-5.5,8.2c-1.8,1-3.3,2.6-4.2,4.5c-1,1.8-2,3.7-3,5.7c-0.6,1.4-1.6,2.6-2.8,3.5
	c-0.7,0.5-1.5,1-2.3,1.3c-2.1,0.7-4.4-0.3-5.3-2.3c-0.5-1-1-2-1.5-2.8c-0.5-0.8-1.2-1-2-0.5c-3.5,1.6-5.9,5-6.3,8.8
	c-0.3,2.5,0.1,5,1.2,7.3c1.9,4.6,3.2,9.4,3.7,14.3c0.4,4.5,0.5,9,0.3,13.5c-0.1,4.4-0.7,8.7-1.8,13c-0.5,1.9-1.2,3.7-2,5.5
	c-0.5,1-1.1,1.9-1.8,2.7c-1.7,1.8-4.6,1.9-6.5,0.2c-0.4-0.3-0.6-0.7-0.9-1.2c-1.2-2.1-1.9-4.4-2-6.8c-0.1-3.7,0.1-7.5,0.7-11.2
	c0.8-5.3,1.8-10.5,2.7-15.8c0.9-4.5,1-9,0.3-13.5c-0.1-1-0.3-1.9-0.7-2.8c-1.6-4-4-7.6-7.2-10.5c-0.7-0.7-1.7-1-2.7-0.8l-11.2,1.5
	l-8.5,1c-0.3,0-0.6,0-0.8,0.2c-3.3,0.3-3-0.2-5.5,3.2c-1,1.2-1.7,2.5-2.5,3.7c-1.1,1.6-2.4,2.9-4,4c-0.7,0.3-1.3,0.8-2,1.2
	c-2.1,1.1-4.7,0.6-6.2-1.3c-0.4-0.5-0.8-1-1.2-1.5c-0.8-1-2.1-1.5-3.3-1.3c-0.6,0.1-1.2,0.2-1.8,0.2c-2.1,0.2-4.2-0.7-5.5-2.3
	c-2-2.3-5.1-3.5-8.2-3.2c-12.8,0.7-25.8,0.7-38.7,0.5c-10.3-0.2-20.7-0.5-30.8-1c-7.5-0.3-15.2-1-22.7-1.5c-1.1-0.1-2.2,0-3.2,0.3
	c-2.8,1.2-5.3,2.7-6.3,6c-0.3,1.2-0.8,2.3-1.2,3.5c-0.3,1-0.8,1.9-1.3,2.8c-1.3,2.1-4.1,2.8-6.3,1.5c-0.1,0-0.1-0.1-0.2-0.1
	c-1.4-0.9-2.4-2.4-2.8-4c-0.3-1-0.3-2-0.7-3.2c-0.1-1.2-0.4-2.4-0.7-3.5c-0.2-0.8-0.5-1.6-0.8-2.3
	C159.9,409.5,158.2,408.5,154.2,409.2z M101.9,378c0.3-0.2,0.7-0.2,1-0.3c3.9-2,8-3.6,12.2-4.8c11.5-3.2,23.2-5.6,35-7
	c5.3-0.7,10.5-1.2,15.8-1.8l17.3-1.5c4.2-0.3,8.3-0.5,12.5-0.7c7.3-0.3,14.7-0.7,21.8-0.8c17-0.3,34-0.2,51,0.5
	c4.5,0.2,8.8,0.3,13.3,0.7c6.5,0.3,12.7,1,19.2,1.3c4.5,0.3,9,0.7,13.5,1.2c7.3,1,14.3,1.8,21.7,2.8c10.4,1.5,20.7,3.7,30.8,6.7
	c0.5,0.2,1,0.2,1.7,0.3c6.2-30.3,12.3-60.5,18.5-90.5c0.2-0.3,0-0.8,0-1.2c-6.5-3.2-47.5-10.7-54.7-10c-0.2,0.6-0.3,1.3-0.3,2
	c-0.5,2.8-1,5.8-1.3,8.7c-1,6-2,12.2-2.8,18.2l-3,18.5c-0.2,1.1-0.5,2.2-0.8,3.3c-0.3,0.7-1,1.3-1.8,1.3c-0.5,0-1,0-1.5-0.2
	c-2.5-0.3-4.8-0.8-7.3-1.2c-4.7-0.7-9.3-1.2-14-1.8c-4.4-0.6-8.9-0.9-13.3-1c-3.5,0-6.7,0-10.2,0.2c-5.3,0.2-10.7,0.2-16,0.3h-1
	c-1-0.1-1.8-0.8-1.8-1.8c-0.1-0.7-0.2-1.3-0.2-2v-13c0-7.3-0.2-14.7-0.2-22.2c0-4.2,0.2-8.5,0.2-12.8c0-0.5-0.2-1-0.2-1.5
	c-0.7,0-1.2-0.2-1.8-0.2c-12.5,0.2-24.8,0.2-37.5,0.2c-0.3,0-0.7,0.2-1,0.2s-0.2,0-0.2,0.2c0,0.2-0.2,0.2-0.3,0.3v2.7
	c0.2,6.3,0.3,12.7,0.3,19c0,6.3-0.2,12.7-0.2,19c0,2.5-0.2,5-0.2,7.5c0.1,1.8-1,3.5-2.8,4l-2.7,0.5c-1.2,0.1-2.3,0.1-3.5,0
	c-4.7,0-9.5-0.2-14.2,0c-6.5,0.2-12.7,0.7-19.2,1c-4.5,0.3-8.8,0.8-13.3,1.3l-9.3,1c-2,0.2-2.8-0.3-3.3-2.3
	c-0.1-0.3-0.2-0.5-0.2-0.8c-0.7-3.8-1.5-7.7-2.2-11.5c-1-6-2-12.2-3.2-18.2s-2-11.7-2.8-17.3l-0.5-1.5c-1.2,0.2-2,0.2-3,0.3l-19,3
	c-8,1.3-15.8,3.4-23.3,6.3c-3,1.2-5.9,2.7-8.7,4.5c-0.3,0.3-0.8,0.7-1.2,1c6.2,29.8,12.2,59.6,18.2,89.3
	C101.5,377.7,101.7,377.8,101.9,378z M350.5,267.3V267c-0.7-0.5-1.2-1.2-1.8-1.7c-7.3-6.3-14.2-13-20.8-20
	c-19.8-20.7-37.7-43.2-53.5-67.2c-7.6-11.3-14.4-23-20.5-35.2c-3.8-7.4-6.9-15.1-9.2-23c-0.2-0.4-0.3-0.8-0.3-1.2H244
	c-0.5,0.6-1,1.3-1.5,2c-4,6-7.7,12.2-11.7,18.2c-8,12-16.5,23.5-25.2,34.8c-4.2,5.5-8.5,11-13.2,16.2c-7.5,8.3-15.2,16.7-22.8,24.7
	c-7.7,8-15.2,15.5-23.3,22.7c-3.2,2.8-6.2,5.7-9,8.7c-3.8,3.8-7.8,7.5-12,11.2s-8.7,7.3-12.8,10.8c-0.3,0.3-1,0.3-0.7,1.2h1
	c4.8-0.8,9.8-1.7,14.7-2.3c4.8-0.7,9.5-1.2,14.3-1.8c1.1-0.2,2.2,0,3.2,0.5c4.7,2.7,9.3,5.3,14,7.8c1.1,0.5,1.9,1.6,2,2.8
	c0.5,3.2,1.2,6.2,1.7,9.2c1.5,8.8,3,18,4.5,26.8c0.2,0.8,0.4,1.6,0.7,2.3c1.2-0.2,2.3-0.2,3.5-0.3c2.8-0.3,5.7-0.7,8.5-0.8
	c7.5-0.3,15.2-0.8,22.7-0.7h3.5c0.5,0,1-0.2,1.7-0.2c0-0.8,0.2-1.5,0.2-2.2v-21c0-4.5,0.2-8.8,0.2-13.3c0-3.5-0.2-7.2-0.2-10.7
	c-0.1-1.5,0.1-3.1,0.7-4.5c0.7-0.1,1.3-0.2,2-0.2c4-0.2,8.2,0.2,12.2-0.3c0.7-0.2,1.2,0.2,1.8,0.2c0.7,0,1.5,0.2,2,0.2
	c4.2-0.2,8.2-0.2,12.2-0.2h1.5c1.7,0.2,3.5,0.2,5,0.2c4.8,0.2,9.7,0.2,14.7,0.2c1.9,0,3.8,0.7,5.3,1.8c0.4,0.2,0.7,0.5,1,0.8
	c3.3,2.3,6.7,4.8,9.8,7.3c0.5,0.3,1,0.7,1.5,1.2c0.8,0.7,1.2,1.8,1.2,2.8c0,0.7-0.2,1.5-0.2,2v34.3c0,0.8,0.2,1.5,0.2,2.3
	c6.7,0.3,13.2,0.7,19.7,1.2c6.5,0.5,12.8,1.8,19.7,2.7c0.7-3.5,1.2-6.8,1.8-10.3c0.7-3.5,1.2-7,1.7-10.5c0.5-3.5,1.2-7,1.7-10.5
	c0.5-3.5,1-7,1.7-10.5c0.7-3.5,1-7,1.8-10.5c4,0,8,0.7,11.8,1C342.7,266.3,346.5,267,350.5,267.3z M296.7,400.8
	c4.7,0.3,9.4-0.1,14-1c4.4-0.5,8.5-2.3,11.7-5.3c0.6-0.6,1.4-0.9,2.2-1c2.3-0.7,4.7-1.2,7-2c1.3-0.4,2.5-1.1,3.5-2
	c1.7-1.6,1.9-4.3,0.3-6.1c0,0-0.1-0.1-0.1-0.1c-0.6-0.5-1.2-1-1.8-1.5c-0.7-0.3-1.5-0.8-2.3-1.2c-1-0.4-1.9-1-2.5-1.8
	c-0.9-1.3-2.2-2.3-3.7-2.8c-1.1-0.4-2.3-0.6-3.5-0.7c-4-0.2-7.8-0.5-11.7-0.5c-2.2,0-4.5,0.3-6.7,0.3c-1.2,0.1-2.4,0.2-3.7,0.2
	c-3.6-0.1-7.1-0.7-10.5-1.8c-0.5-0.2-1-0.3-1.5-0.3c-3.4-0.9-7-1.3-10.5-1.2c-2,0.2-4.2,0.3-6.5,0.7c-4.2,0.6-8.4,0.4-12.5-0.3
	c-3.3-0.7-6.7-0.8-10-0.2c-2.5,0.4-5.1,0.6-7.7,0.7c-13.7,0-27.3,0-41.2,0.5c-8.5,0.3-16.8,0.8-25.3,1.5c-1.5,0.1-3,0-4.5-0.3
	c-6-1.8-12.4-1.2-18,1.5c-2.5,1.3-5,2.5-7.7,3.5c-3.2,1.2-4.8,4.7-3.6,7.9c0.4,1,1,1.9,1.8,2.6c1.1,1,2.3,1.7,3.7,2.2
	c3.5,1.5,7.3,2.3,11.2,2.3c3.8,0,7.7,0.2,11.5,0.3c3.4,0.1,6.7,1.1,9.7,2.8c3.2,2,7,3.1,10.8,3c4.2-0.2,8.2-0.2,12.2-0.7
	c5.6-0.7,11.2-0.8,16.8-0.3c1.8,0.2,3.7,0.3,5.7,0.7c4.5,0.4,9,1.3,13.3,2.8c2,0.7,4.1,1.2,6.2,1.5c6.6,0.7,13.2,0.3,19.7-1.2
	c4.2-0.9,8.4-1.1,12.7-0.8c2.2,0.2,4.3,0.2,6.5,0l10-1C293.2,401.1,294.9,400.8,296.7,400.8L296.7,400.8z"/>
<path d="M384.9,105.5c-2.1,0.3-4.2,0.2-6.2-0.3c-8.2-1.5-16.3-3-24.7-4.5c-5.7-1-11.3-2.2-17-3.2c-6.7-1.2-13.5-2.3-20.2-3.7l-27-5
	c-8.8-1.7-17.7-3.5-26.5-5.2c-2.8-0.5-5.6-1.2-8.3-2c-0.5-0.2-1-0.2-1.7-0.3c-0.2,0.5-0.3,1-0.3,1.5c-0.3,2.8-1,5.6-2,8.3
	c-0.2,0.5-0.5,1-0.8,1.5c-0.3-0.5-0.6-1-1-1.5c-1.2-2.8-1.8-5.8-2-8.8c-0.3-4.1-0.2-8.1,0.2-12.2c1.2-11.4,3.2-22.6,6-33.7
	c0.1-0.6,0.2-1.2,0.2-1.8c-1-0.7-2-1.5-2.8-2c-2.7-2.1-4.3-5.4-4.2-8.8c-0.3-6,3.1-11.7,8.5-14.3c2.1-1.1,4.2-1.9,6.5-2.5
	c5.2-1.4,10.8,0.3,14.3,4.3c3.3,3.4,4.5,8.3,3,12.8c-0.7,2.4-2,4.6-3.7,6.5c-3.2,3.5-7.7,5.6-12.5,5.8c-0.5,0-0.9,0.1-1.3,0.3
	c0.7,0.2,1.2,0.5,1.8,0.7c9.2,1.7,18.2,4.2,27.3,6.3c18.2,4.3,36.2,9.2,54.3,13.8c6.3,1.7,12.8,2.8,19.3,4.5
	c7.3,1.8,14.7,3.5,22,5.3c4.5,1,9,2,13.5,2.8c0.7,0.2,1.3,0.3,2.3,0.7c-1.9,0.5-3.8,0.8-5.7,0.8l-16,0.5l-21.8,1
	c-8.3,0.3-16.8,0.8-25.3,1.2c-0.9,0-1.8,0.1-2.7,0.3c0.2,1,0.7,1,1.2,1.2c7.8,4.2,15.8,8.3,23.7,12.7c9.5,5.3,19,10.7,28.3,16
	C384.1,104.9,384.5,105.2,384.9,105.5z"/>
<path d="M168.5,245.8c0.4-2.3,1.4-4.4,2.8-6.2c1.5-2,3.2-3.8,4.8-5.7c8.2-8.7,16.5-17.2,24.8-25.8c0.5-0.5,1-1.2,1.7-2
	c-0.4-0.2-0.8-0.5-1.2-0.7c-2.8-1-5.8-1.8-8.8-2.8c-1.8-0.7-1.8-0.7-2.3-2.8c0.2-0.3,0.4-0.5,0.5-0.8c0.4-0.7,1.2-1,2-0.8
	c1.3,0.3,2.7,0.5,4,0.8c3.2,1,6.5,1.8,9.7,2.8c3.3-3,6.3-6.3,9-9.8c-0.5-0.2-0.9-0.4-1.3-0.7c-2.3-0.7-4.8-1.5-7.2-2.2
	c-1.7-0.3-2.9-1.8-2.8-3.5c0.2-0.3,0.4-0.5,0.5-0.8c0.5-1,1.6-1.5,2.7-1.2c1.6,0.3,3.1,0.6,4.7,1c2.3,0.7,4.5,1.3,6.7,2
	c0.3,0.2,0.8,0.2,1.3,0.3l1.5-1.5c3.2-3.7,6.2-7.5,9.2-11.3c1-1.5,2.5-2.6,4.2-3.2c0.7,0.3,1.5,1,2.3,1.5c0.8,2.6,0.2,5.5-1.5,7.7
	c-1.8,2.5-3.7,5-5.7,7.5c-0.7,0.7-1.2,1.5-2,2.3c5.3,2.3,10.7,4.5,16,6.8c0.4-0.3,0.8-0.7,1.2-1.2c2.5-2.9,4.6-6.2,6.2-9.7
	c0.5-1.3,1.5-2.4,2.8-2.8c0.3-0.2,0.6-0.3,1-0.3c4.2,2,3.5,2.2,3.5,5.5c0,1.5-0.4,3-1.2,4.3c-1.2,2-2.3,4-3.7,5.8
	c-0.5,0.7-1,1.5-1.7,2.3c1,0.5,1.7,1,2.3,1.3c7.7,3.9,15,8.4,22,13.5c4.6,3.1,8.4,7.2,11.2,12c0.3,0.7,0.5,1.2,0.8,1.8
	c-0.4,0.3-1,0.2-1.3-0.2c-2-1.2-4.2-2.3-6.3-3.5c-2-1.2-4-2.6-5.8-4.2c-8.2-5.8-16.8-11-25.7-15.5c-0.5-0.2-0.9-0.4-1.3-0.7
	c-1.7,1.4-3.3,2.9-4.7,4.7c-1.5,1.5-3.2,3.2-5,4.8c7.3,3.3,13.8,8.1,19.2,14c-0.8-0.2-1.3-0.2-1.8-0.3c-4-1.7-7.8-3.5-11.7-5.2
	c-2.3-1-4.5-2.3-7-3.5c-0.8-0.3-1.8-0.8-2.7-1.2c-1,0.3-1.9,1-2.5,1.8c-2.7,2.4-5.7,4.6-8.8,6.5c-2.6,1.5-5.3,2.8-8.2,3.7
	c-0.3,0.1-0.7,0.2-1,0.2c-0.5-0.7-0.2-1,0.2-1.5c2.3-4.7,5.5-8.8,9.5-12.2l2-2v-0.5c-4.8-2.2-9.7-4.2-14.7-5.8c-1,0.4-1.8,1.1-2.3,2
	c-8.7,8.8-17.2,17.7-25.8,26.3c-2.1,2-4.2,3.8-6.5,5.5c-1.9,1.4-4,2.4-6.2,3.2C170,246.2,169.4,246.5,168.5,245.8z M230.7,211.2
	c3.2-2.5,8.2-7.5,9.2-9.7c-5.2-2.3-10.3-4.7-15.7-6.5c-0.3,0.1-0.5,0.3-0.7,0.5c-2.7,2.8-5.2,5.7-7.7,8.5c-0.2,0.3-0.4,0.6-0.3,1
	C220.5,207,225.5,209.2,230.7,211.2z"/>
<rect class="st0" width="500" height="500"/>
<ellipse transform="matrix(0.7071 -0.7071 0.7071 0.7071 -103.5534 250)" class="st0" cx="250" cy="250" rx="250" ry="250"/>
</svg>
